<svg width="24" height="24" viewBox="0 0 24 24" fill="none" xmlns="http://www.w3.org/2000/svg">
<path d="M12 0.333374C5.5565 0.333374 0.333332 5.55654 0.333332 12C0.333332 18.4435 5.5565 23.6667 12 23.6667C18.4435 23.6667 23.6667 18.4435 23.6667 12C23.6667 5.55654 18.4435 0.333374 12 0.333374ZM12 3.54171C14.0942 3.54171 15.7917 5.23921 15.7917 7.33337C15.7917 9.42754 14.0942 11.125 12 11.125C9.90583 11.125 8.20833 9.42754 8.20833 7.33337C8.20833 5.23921 9.90583 3.54171 12 3.54171ZM12 21.3334C9.15567 21.3334 6.60883 20.0605 4.89733 18.0527C4.45283 17.5312 4.552 16.7484 5.09917 16.3365C6.869 15.0054 10.0937 14.3334 12 14.3334C13.9063 14.3334 17.131 15.0054 18.902 16.3365C19.4492 16.7484 19.5483 17.5324 19.1038 18.0527C17.3912 20.0605 14.8443 21.3334 12 21.3334Z" fill="#86868B"/>
</svg>
